<?xml version="1.0" encoding="UTF-8" standalone="no" ?>
<!DOCTYPE svg PUBLIC "-//W3C//DTD SVG 1.1//EN" "http://www.w3.org/Graphics/SVG/1.1/DTD/svg11.dtd">
<svg xmlns="http://www.w3.org/2000/svg" xmlns:xlink="http://www.w3.org/1999/xlink" version="1.1" width="350" height="350" viewBox="0 0 350 350" xml:space="preserve">
<desc>Created with Fabric.js 1.7.22</desc>
<defs>
</defs>
<g id="icon" style="stroke: none; stroke-width: 1; stroke-dasharray: none; stroke-linecap: butt; stroke-linejoin: miter; stroke-miterlimit: 10; fill: none; fill-rule: nonzero; opacity: 1;" transform="translate(-1.9444444444444287 -1.9444444444444287) scale(3.89 3.89)" >
	<path d="M 67.972 23.504 c -0.378 0 -0.755 -0.144 -1.044 -0.432 c -0.577 -0.576 -0.577 -1.511 0 -2.087 L 87.48 0.432 c 0.577 -0.577 1.511 -0.577 2.087 0 c 0.577 0.576 0.577 1.511 0 2.087 L 69.015 23.072 C 68.727 23.36 68.349 23.504 67.972 23.504 z" style="stroke: none; stroke-width: 1; stroke-dasharray: none; stroke-linecap: butt; stroke-linejoin: miter; stroke-miterlimit: 10; fill: rgb(159,164,165); fill-rule: nonzero; opacity: 1;" transform=" matrix(1 0 0 1 0 0) " stroke-linecap="round" />
	<rect x="12.6" y="64.44" rx="0" ry="0" width="11.8" height="14.13" style="stroke: none; stroke-width: 1; stroke-dasharray: none; stroke-linecap: butt; stroke-linejoin: miter; stroke-miterlimit: 10; fill: rgb(184,191,193); fill-rule: nonzero; opacity: 1;" transform=" matrix(-0.7071 -0.7071 0.7071 -0.7071 -18.9807 135.1411) "/>
	<path d="M 57.626 16.053 l 17.572 -2.854 c 0.941 -0.153 1.754 0.661 1.602 1.602 l -2.854 17.572 c -0.047 0.289 -0.184 0.556 -0.391 0.763 L 30.234 76.459 c -0.545 0.545 -1.429 0.545 -1.974 0 L 13.541 61.74 c -0.545 -0.545 -0.545 -1.429 0 -1.974 l 43.322 -43.322 C 57.07 16.237 57.337 16.1 57.626 16.053 z" style="stroke: none; stroke-width: 1; stroke-dasharray: none; stroke-linecap: butt; stroke-linejoin: miter; stroke-miterlimit: 10; fill: rgb(176,220,247); fill-rule: nonzero; opacity: 1;" transform=" matrix(1 0 0 1 0 0) " stroke-linecap="round" />
	<path d="M 0.466 68.617 l 20.917 20.917 c 0.621 0.621 1.628 0.621 2.249 0 l 1.026 -1.026 c 0.621 -0.621 0.621 -1.628 0 -2.249 L 3.74 65.342 c -0.621 -0.621 -1.628 -0.621 -2.249 0 l -1.026 1.026 C -0.155 66.99 -0.155 67.996 0.466 68.617 z" style="stroke: none; stroke-width: 1; stroke-dasharray: none; stroke-linecap: butt; stroke-linejoin: miter; stroke-miterlimit: 10; fill: rgb(159,164,165); fill-rule: nonzero; opacity: 1;" transform=" matrix(1 0 0 1 0 0) " stroke-linecap="round" />
	<path d="M 10.442 58.641 l 20.917 20.917 c 0.621 0.621 1.628 0.621 2.249 0 l 1.026 -1.026 c 0.621 -0.621 0.621 -1.628 0 -2.249 L 13.717 55.366 c -0.621 -0.621 -1.628 -0.621 -2.249 0 l -1.026 1.026 C 9.821 57.013 9.821 58.02 10.442 58.641 z" style="stroke: none; stroke-width: 1; stroke-dasharray: none; stroke-linecap: butt; stroke-linejoin: miter; stroke-miterlimit: 10; fill: rgb(159,164,165); fill-rule: nonzero; opacity: 1;" transform=" matrix(1 0 0 1 0 0) " stroke-linecap="round" />
	<path d="M 51.867 38.133 l 8.347 8.347 l 2.784 -2.784 l -8.347 -8.347 c -0.769 -0.769 -2.015 -0.769 -2.784 0 S 51.098 37.364 51.867 38.133 z" style="stroke: none; stroke-width: 1; stroke-dasharray: none; stroke-linecap: butt; stroke-linejoin: miter; stroke-miterlimit: 10; fill: rgb(102,168,209); fill-rule: nonzero; opacity: 1;" transform=" matrix(1 0 0 1 0 0) " stroke-linecap="round" />
	<path d="M 44.271 45.728 l 8.347 8.347 l 2.784 -2.784 l -8.347 -8.347 c -0.769 -0.769 -2.015 -0.769 -2.784 0 C 43.503 43.713 43.503 44.96 44.271 45.728 z" style="stroke: none; stroke-width: 1; stroke-dasharray: none; stroke-linecap: butt; stroke-linejoin: miter; stroke-miterlimit: 10; fill: rgb(102,168,209); fill-rule: nonzero; opacity: 1;" transform=" matrix(1 0 0 1 0 0) " stroke-linecap="round" />
	<path d="M 36.676 53.324 l 8.347 8.347 l 2.784 -2.784 L 39.46 50.54 c -0.769 -0.769 -2.015 -0.769 -2.784 0 C 35.908 51.309 35.908 52.555 36.676 53.324 z" style="stroke: none; stroke-width: 1; stroke-dasharray: none; stroke-linecap: butt; stroke-linejoin: miter; stroke-miterlimit: 10; fill: rgb(102,168,209); fill-rule: nonzero; opacity: 1;" transform=" matrix(1 0 0 1 0 0) " stroke-linecap="round" />
	<path d="M 75.247 24.367 l 1.554 -9.566 c 0.153 -0.941 -0.661 -1.754 -1.602 -1.602 l -9.566 1.554 L 75.247 24.367 z" style="stroke: none; stroke-width: 1; stroke-dasharray: none; stroke-linecap: butt; stroke-linejoin: miter; stroke-miterlimit: 10; fill: rgb(159,164,165); fill-rule: nonzero; opacity: 1;" transform=" matrix(1 0 0 1 0 0) " stroke-linecap="round" />
</g>
</svg>